<svg width="9" height="13" viewBox="0 0 9 13" fill="#000" xmlns="http://www.w3.org/2000/svg">
    <path d="M7.77775 11.8843V1.22657L1.68775 6.55546L7.77775 11.8843ZM7.04553 12.721L0.956637 7.39212C0.837294 7.28783 0.741642 7.15922 0.676105 7.01491C0.610567 6.8706 0.57666 6.71395 0.57666 6.55546C0.57666 6.39696 0.610567 6.24031 0.676105 6.096C0.741642 5.95169 0.837294 5.82308 0.956637 5.71879L7.04553 0.3899C7.20619 0.249134 7.40402 0.157662 7.61533 0.126438C7.82664 0.0952135 8.04247 0.125561 8.23698 0.213845C8.43149 0.302129 8.59642 0.444608 8.71204 0.62422C8.82765 0.803831 8.88904 1.01296 8.88886 1.22657V11.8843C8.88904 12.0979 8.82765 12.3071 8.71204 12.4867C8.59642 12.6663 8.43149 12.8088 8.23698 12.8971C8.04247 12.9853 7.82664 13.0157 7.61533 12.9845C7.40402 12.9532 7.20619 12.8618 7.04553 12.721Z" fill="black"/>
</svg>